<?xml version="1.0" encoding="utf-8"?>
<!-- Generator: Adobe Illustrator 16.0.4, SVG Export Plug-In . SVG Version: 6.00 Build 0)  -->
<!DOCTYPE svg PUBLIC "-//W3C//DTD SVG 1.1//EN" "http://www.w3.org/Graphics/SVG/1.1/DTD/svg11.dtd">
<svg version="1.1" id="Layer_1" xmlns="http://www.w3.org/2000/svg" xmlns:xlink="http://www.w3.org/1999/xlink" x="0px" y="0px"
	 width="131px" height="31px" viewBox="0 0 131 31" enable-background="new 0 0 131 31" xml:space="preserve">
<g>
	<g>
		<path fill-rule="evenodd" clip-rule="evenodd" fill="#FFFFFF" d="M25.655,18.5l-0.313,0.248l-0.312,0.222l-0.327,0.222
			l-0.338,0.208l-0.313,0.183l-0.339,0.182l-0.339,0.157l-0.339,0.13l-0.338,0.117l-0.365,0.118l-0.365,0.091l-0.365,0.065
			l-0.352,0.039l-0.391,0.052H20.48h-0.248l-0.261-0.026l-0.221-0.026l-0.248-0.039L19.28,20.39l-0.234-0.065L18.85,20.26
			l-0.235-0.091l-0.195-0.091l-0.208-0.117l-0.183-0.104l-0.182-0.118l-0.183-0.13l-0.156-0.169l-0.157-0.13l-0.156-0.157
			l-0.144-0.157l-0.13-0.182l-0.144-0.183l-0.104-0.183l-0.091-0.208l-0.091-0.196l-0.092-0.208l-0.064-0.195l-0.065-0.235
			l-0.052-0.221l-0.026-0.235l-0.013-0.248v-0.222v-0.248l0.013-0.248l0.026-0.248l0.052-0.248l0.039-0.261l0.091-0.248l0.066-0.222
			l0.091-0.248l0.091-0.235l0.117-0.221l0.13-0.209l0.144-0.222l0.13-0.208l0.13-0.195l0.169-0.183l0.156-0.208l0.183-0.183
			l0.182-0.157l0.169-0.182l0.208-0.157l0.209-0.13l0.404-0.3l0.221-0.117l0.235-0.105l0.222-0.117l0.222-0.092l0.234-0.091
			l0.248-0.065l0.221-0.065l0.248-0.053l0.261-0.039l0.248-0.026l0.248-0.026h0.248h0.365l0.378,0.053l0.339,0.065l0.182,0.026
			l0.183,0.039l0.339,0.117l0.313,0.13l0.326,0.143l0.313,0.157l0.3,0.183l0.287,0.195l0.273,0.208l0.274,0.209l0.274,0.221
			l0.248,0.248l0.248,0.234l0.222,0.248l1.199-9.373l-0.691-0.235L26.854,3.69l-0.352-0.091l-0.704-0.182l-0.391-0.078l-0.366-0.065
			L24.69,3.208l-0.391-0.039l-0.365-0.052l-0.378-0.04l-0.769-0.052L22.031,3l-0.678,0.026l-0.339,0.026l-0.339,0.025l-0.652,0.092
			l-0.339,0.039l-0.312,0.065l-0.665,0.144l-0.312,0.091l-0.326,0.091L17.755,3.69l-0.312,0.104l-0.313,0.091L16.804,4.03
			l-0.287,0.104l-0.326,0.143l-0.587,0.287l-0.587,0.3l-0.561,0.339l-0.299,0.182l-0.274,0.183L13.609,5.75l-0.273,0.195
			l-0.261,0.208l-0.248,0.208l-0.273,0.196l-0.248,0.234l-0.261,0.222l-0.247,0.222l-0.47,0.457l-0.456,0.496l-0.209,0.248
			l-0.221,0.247l-0.209,0.274l-0.195,0.274L9.829,9.479l-0.183,0.3l-0.378,0.535l-0.339,0.6l-0.326,0.586l-0.287,0.587l-0.248,0.613
			l-0.248,0.625L7.704,13.65l-0.091,0.313l-0.091,0.339L7.43,14.628L7.273,15.28l-0.117,0.677l-0.091,0.652l-0.039,0.639L7,17.887
			l0.026,0.625v0.3l0.026,0.312l0.039,0.3l0.052,0.287l0.039,0.299l0.039,0.287l0.078,0.3l0.066,0.261l0.091,0.274l0.065,0.287
			l0.091,0.273l0.117,0.248l0.196,0.547l0.247,0.496l0.144,0.248l0.13,0.234l0.3,0.47l0.157,0.234l0.156,0.222l0.365,0.43
			l0.182,0.208l0.183,0.196l0.183,0.208l0.196,0.182l0.43,0.379l0.431,0.339l0.235,0.156l0.221,0.169l0.248,0.157l0.235,0.13
			l0.248,0.144l0.248,0.13l0.273,0.13l0.248,0.117l0.274,0.117l0.261,0.105l0.273,0.091l0.273,0.091l0.3,0.092l0.287,0.091
			l0.3,0.078l0.287,0.065l0.3,0.039l0.313,0.052l0.613,0.091l0.312,0.013l0.326,0.026l0.652,0.026l0.678-0.026l0.391-0.026
			l0.404-0.013l0.456-0.026l0.431-0.052l0.925-0.104l0.482-0.065l0.443-0.078l0.456-0.065l0.405-0.091l0.417-0.091l0.378-0.117
			l0.365-0.105l0.287-0.143l1.708-9.204L25.655,18.5z M47.622,3.417h-9.921l-6.179,12.319l-6.18,12.32h9.491l1.199-3.077h6.766
			l0.339,3.077h9.491l-2.516-12.32L47.622,3.417z M38.522,19.151l2.803-7.521h0.326v0.795l0.013,0.795l0.026,0.795l0.026,0.378
			l0.039,0.404l0.365,4.354H38.522z M56.278,15.736l-1.877,12.32h8.969l1.864-12.32l1.904-12.319h-8.957L56.278,15.736z
			 M119.557,15.736l-2.49-12.319h-9.894l-6.193,12.319l-6.179,12.32h9.491l1.173-3.077h6.779l0.339,3.077h9.491L119.557,15.736z
			 M107.98,19.151l2.79-7.521h0.339v0.795v0.795l0.025,0.795l0.014,0.378l0.052,0.404l0.378,4.354H107.98z M76.185,16.271
			l5.918,11.681h10.821l-5.906-11.681H76.185z"/>
	</g>
</g>
<path fill-rule="evenodd" clip-rule="evenodd" fill="#F49C00" d="M88.191,3.423h10.781L87.852,15.129h-10.82L88.191,3.423z"/>
<path fill-rule="evenodd" clip-rule="evenodd" fill="#F49C00" d="M76.328,16.271h10.781L75.963,27.951H65.156L76.328,16.271z"/>
<path fill-rule="evenodd" clip-rule="evenodd" fill="#FFFFFF" d="M71.113,3.43h10.834l5.905,11.707h-10.82L71.113,3.43z"/>
</svg>
